# xmcd CD database file
#
# Track frame offsets:
#	150
#	38257
#	53300
#	82559
#	98876
#	119730
#	150761
#	164120
#	176812
#	182732
#	192571
#	240187
#
# Disc length: 3314 seconds
#
# Revision: 0
# Processed by: cddbd v1.4PL0 Copyright (c) Steve Scherf et al.
# Submitted via: CDex 1.50Beta7
#
DISCID=850cf00c
DTITLE=John Sund - New Gems
DYEAR=2003
DGENRE=Jazz
TTITLE0=Along The Way
TTITLE1=Right On It
TTITLE2=Lelo's Song
TTITLE3=Silent Stream
TTITLE4=Mutual Vibes
TTITLE5=Memory Song
TTITLE6=Pulse Chant (Bushman's Cry)
TTITLE7=Natures Wheel
TTITLE8=Reminiscence
TTITLE9=Living Shades
TTITLE10=Verve Part 3
TTITLE11=Farewell Song
EXTD=YEAR: 2003
EXTT0=
EXTT1=
EXTT2=
EXTT3=
EXTT4=
EXTT5=
EXTT6=
EXTT7=
EXTT8=
EXTT9=
EXTT10=
EXTT11=
PLAYORDER=
